<svg xmlns="http://www.w3.org/2000/svg" xmlns:xlink="http://www.w3.org/1999/xlink" version="1.1" x="0px" y="0px" viewBox="0 0 50 50" style="enable-background:new 0 0 50 50;" xml:space="preserve"><style type="text/css">
	.st0{fill:none;stroke:#042b46;stroke-width:2;stroke-miterlimit:10;}
	.st1{fill:none;stroke:#042b46;stroke-width:2;stroke-miterlimit:10;stroke-dasharray:2,3;}
	.st2{fill:none;stroke:#042b46;stroke-width:2;stroke-linejoin:round;stroke-miterlimit:10;}
	.st3{fill:none;stroke:#042b46;stroke-width:2;stroke-miterlimit:10;stroke-dasharray:2,2;}
	.st4{fill:none;stroke:#042b46;stroke-width:2;stroke-linejoin:round;stroke-miterlimit:10;stroke-dasharray:2,2;}
	.st5{fill:none;stroke:#042b46;stroke-width:2;stroke-miterlimit:10;stroke-dasharray:1.7143,1.7143;}
	.st6{fill:none;stroke:#042b46;stroke-width:2;stroke-linecap:round;stroke-miterlimit:10;}
	.st7{fill:none;stroke:#042b46;stroke-width:2;stroke-linecap:round;stroke-linejoin:round;stroke-miterlimit:10;}
</style><g><path class="st0" d="M41.2,32.4c4.5-1.2,6.8-5.5,6.8-8.4c0-4-3.1-7.3-7.2-7.6c0.6-1.4,1-3,0.9-4.7C41.4,6.3,36.7,2,31.2,2   c-5.1,0-9.4,3.4-10.5,8.1c-1.6-1.9-4.1-3-6.8-2.7c-3,0.3-5.5,2.3-6.5,5c-0.6,1.6-0.6,3.1-0.2,4.5C4.2,17.9,2,20.7,2,24   c0,4,2.8,6.8,6.8,7.2"/><g><g><path class="st0" d="M7.5,27.4c4.8-5,11.2-7.4,17.5-7.4s12.7,2.5,17.5,7.4"/><path class="st0" d="M11.8,31.9c1.8-1.8,3.8-3.2,6-4.1s4.6-1.4,7.1-1.4s4.9,0.5,7.1,1.4c2.2,0.9,4.3,2.3,6,4.1"/><path class="st0" d="M16.2,36.3c2.4-2.4,5.5-3.7,8.8-3.7s6.5,1.3,8.8,3.7"/></g><circle class="st0" cx="25" cy="43.3" r="4.7"/></g></g></svg>