<svg xmlns="http://www.w3.org/2000/svg" xmlns:xlink="http://www.w3.org/1999/xlink" version="1.1" x="0px" y="0px" viewBox="30 30 40 40" xml:space="preserve" fill="#fff"><path d="M68.2,34.1v9.1c0,0,0,4.5-9.1,4.5c-8.9,0-9.1,4.3-9.1,4.5v0c0,0,0,0,0,0c0,0,0,0,0,0v0c0-0.2-0.2-4.5-9.1-4.5  c-9.4,0-9.1-4.5-9.1-4.5v-9.1c0,0,0,4.5,9.1,4.5c8.7,0,9.1,4.2,9.1,4.5c0-0.4,0.1-4.5,9.1-4.5C68.2,38.6,68.2,34.1,68.2,34.1z"/><path d="M59.1,52.3c-9,0-9.1,4.2-9.1,4.5c0-0.4-0.4-4.5-9.1-4.5c-9.1,0-9.1-4.5-9.1-4.5v9.1c0,0-0.3,4.5,9.1,4.5  c8.9,0,9.1,4.3,9.1,4.5v0c0,0,0,0,0,0c0,0,0,0,0,0v0c0-0.2,0.2-4.5,9.1-4.5c9.1,0,9.1-4.5,9.1-4.5v-9.1  C68.2,47.7,68.2,52.3,59.1,52.3z"/></svg>